<?xml version="1.0"?>
<svg xmlns="http://www.w3.org/2000/svg" viewBox="0 0 50 50">
    <path d="M 25 0 C 18.9 0 14 4.7875 14 10.6875 L 14 23.3125 C 14 29.1125 18.69375 33.8 24.59375 34 C 24.79375 33.3 25.10625 32.6 25.40625 32 L 25 32 C 20 32 16 28.1125 16 23.3125 L 16 21 L 21.5 21 C 22.1 21 22.5 20.6 22.5 20 C 22.5 19.4 22.1 19 21.5 19 L 16 19 L 16 17 L 21.5 17 C 22.1 17 22.5 16.6 22.5 16 C 22.5 15.4 22.1 15 21.5 15 L 16 15 L 16 13 L 21.5 13 C 22.1 13 22.5 12.6 22.5 12 C 22.5 11.4 22.1 11 21.5 11 L 16 11 L 16 10.6875 C 16 5.8875 20 2 25 2 C 30 2 34 5.8875 34 10.6875 L 34 11 L 28.5 11 L 28.40625 11 L 28.3125 11 C 27.7125 11.1 27.30625 11.49375 27.40625 12.09375 C 27.50625 12.69375 27.9 13.1 28.5 13 L 34 13 L 34 15 L 28.5 15 L 28.40625 15 L 28.3125 15 C 27.7125 15.1 27.30625 15.49375 27.40625 16.09375 C 27.50625 16.69375 27.9 17.1 28.5 17 L 34 17 L 34 19 L 28.5 19 L 28.40625 19 L 28.3125 19 C 27.7125 19.1 27.30625 19.49375 27.40625 20.09375 C 27.50625 20.69375 27.9 21.1 28.5 21 L 34 21 L 34 23.3125 C 34 23.8125 33.90625 24.19375 33.90625 24.59375 C 34.60625 24.39375 35.3 24.19375 36 24.09375 L 36 23.1875 L 36 10.6875 C 36 4.7875 31.1 -2.3684758e-15 25 0 z M 10 17 C 9.4 17 9 17.4 9 18 L 9 23 C 9 30.8 14.6 37.2875 22 38.6875 L 22 45 L 15.5 45 C 13.6 45 12 46.6 12 48.5 L 12 50 L 30.8125 50 C 29.9125 49.4 28.9875 48.8 28.1875 48 L 14.09375 48 C 14.29375 47.4 14.9 47 15.5 47 L 23 47 L 27 47 L 27.3125 47 C 26.8125 46.4 26.30625 45.7 25.90625 45 L 24 45 L 24 38.90625 L 24.09375 38.90625 C 24.09375 38.60625 24 38.3 24 38 C 24 37.6 23.99375 37.30625 24.09375 36.90625 C 16.79375 36.40625 11 30.4 11 23 L 11 18 C 11 17.4 10.6 17 10 17 z M 40 17 C 39.4 17 39 17.4 39 18 L 39 23 C 39 23.4 39.00625 23.69375 38.90625 24.09375 C 39.60625 24.09375 40.30625 24.20625 40.90625 24.40625 C 40.90625 24.00625 41 23.49375 41 23.09375 L 41 18.09375 C 41 17.39375 40.6 17 40 17 z M 38 26.09375 C 31.4 26.09375 26 31.49375 26 38.09375 C 26 41.29375 27.30625 44.30625 29.40625 46.40625 C 29.40625 46.40625 29.4 46.5 29.5 46.5 L 29.59375 46.59375 L 29.8125 46.8125 C 32.0125 48.9125 34.89375 50.1875 38.09375 50.1875 C 44.69375 50.1875 50.09375 44.7875 50.09375 38.1875 C 49.99375 34.7875 48.6875 31.9125 46.6875 29.8125 C 46.6375 29.7625 46.625 29.71875 46.625 29.71875 C 46.481009 29.554478 46.396731 29.40625 46.3125 29.40625 C 44.1125 27.30625 41.3 26.09375 38 26.09375 z M 38 28 C 40.7 28 43.10625 29.1125 44.90625 30.8125 L 45.1875 31.09375 L 45.1875 31.1875 C 46.8875 32.9875 48 35.4 48 38 C 48 43.5 43.5 48 38 48 C 35.3 48 32.89375 46.8875 31.09375 45.1875 C 30.99375 45.1875 31.00625 45.09375 30.90625 45.09375 L 30.8125 45 C 30.8125 45 30.7875 44.90625 30.6875 44.90625 C 29.0875 43.10625 28 40.7 28 38 C 28 32.5 32.5 28 38 28 z M 37 32 L 37 37 L 32 37 L 32 39 L 37 39 L 37 44 L 39 44 L 39 39 L 44 39 L 44 37 L 39 37 L 39 32 L 37 32 z"/>
</svg>
