<?xml version="1.0"?>
<svg xmlns="http://www.w3.org/2000/svg" viewBox="0 0 24 24" enable-background="new 0 0 24 24">
    <path style="text-indent:0;text-align:start;line-height:normal;text-transform:none;block-progression:tb;-inkscape-font-specification:Bitstream Vera Sans" d="M 12 0 C 9.8 0 8 1.8 8 4 L 8 11 C 8 13.2 9.8 15 12 15 C 14.2 15 16 13.2 16 11 L 16 4 C 16 1.8 14.2 0 12 0 z M 3 11 C 3 15.603528 6.5252272 19.429681 11 19.9375 L 11 24 L 13 24 L 13 19.9375 C 17.474773 19.429681 21 15.603528 21 11 L 19 11 C 19 14.854545 15.854545 18 12 18 C 8.1454545 18 5 14.854545 5 11 L 3 11 z" overflow="visible" enable-background="accumulate" font-family="Bitstream Vera Sans"/>
</svg>
